# xmcd
#
# Track frame offsets: 
#        150
#        23711
#        51145
#        72890
#        96574
#        128168
#        143940
#        173028
#        194581
#        226152
#
# Disc length: 3497 seconds
#
# Revision: 4
# Processed by: cddbd v1.5.2PL0 Copyright (c) Steve Scherf et al.
# Submitted via: ExactAudioCopy v0.99pb5
#
DISCID=8b0da70a
DTITLE=Various Artist - Jazzthing - 20 Years Of Stunt Records
DYEAR=2003
DGENRE=Jazz
TTITLE0=Ulrik, Hans, Jonas Johansen, Steve Swallow - After you've gone
TTITLE1=Lundin, Fredrik Overdrive - Beauty and the only slightly less 
TTITLE1=handsome
TTITLE2=Cronholm, Josefine and Ibis - Don't let me wait
TTITLE3=Rockwell, Bob - Mimosa and me
TTITLE4=Thigpen, Ed and Joe Lovano - Chelsea bridge
TTITLE5=Orkestret, Tango - Escualo
TTITLE6=Clausen, Thomas - Song of the forrest
TTITLE7=Dahl, Carsten, Arild Andersen, Patrice Heral - Crawl before yo
TTITLE7=u walk
TTITLE8=Riel, Alex, Kenny Werner, Jerry Bergonzi, Michael Brecker, Chr
TTITLE8=is Minh Doky - Did you call her today
TTITLE9=Dinesen, Jacob, Kurt Rosenwinkel - Limbo
EXTD=YEAR: 2003
EXTT0=
EXTT1=
EXTT2=
EXTT3=
EXTT4=
EXTT5=
EXTT6=
EXTT7=
EXTT8=
EXTT9=
PLAYORDER=
